<svg xmlns="http://www.w3.org/2000/svg" xmlns:xlink="http://www.w3.org/1999/xlink" zoomAndPan="magnify" preserveAspectRatio="xMidYMid meet" version="1.0" viewBox="10.44 117.93 349.6 94.09"><defs><g/><clipPath id="d434802aac"><path d="M 10.445312 117.929688 L 80.921875 117.929688 L 80.921875 212.023438 L 10.445312 212.023438 Z M 10.445312 117.929688 " clip-rule="nonzero"/></clipPath></defs><g clip-path="url(#d434802aac)"><path fill="#a1d61d" d="M 23.210938 117.929688 C 21.070312 122.222656 21.492188 127.488281 26.683594 133.257812 C 35.3125 142.839844 50.320312 149.980469 53.28125 169.984375 C 57.835938 157.5 76.527344 161.515625 79.316406 151.296875 C 83.253906 161.726562 79.601562 170.492188 72.117188 174.4375 C 64.804688 178.289062 56.992188 178.992188 56.023438 185.734375 C 55.597656 182.363281 56.496094 178.917969 58.230469 176.519531 C 63.167969 169.703125 73.941406 167.296875 77.375 159.503906 C 70.328125 167.914062 58.46875 167.484375 53.328125 178.199219 C 43.15625 161.925781 26.320312 159.335938 20.382812 137.164062 C 20.855469 159.894531 43.96875 166.964844 53.507812 185.214844 C 56.988281 191.871094 57.675781 200.5 52.8125 206.617188 C 46.023438 215.152344 25.316406 213.03125 23.097656 204.101562 C 21.21875 196.539062 28.914062 190.824219 36.738281 190.140625 C 45.097656 189.410156 51.269531 193.886719 52.230469 200.46875 C 52.535156 179.378906 26.554688 180.769531 14.648438 160.078125 C 6 145.054688 11.597656 125.242188 23.210938 117.929688 " fill-opacity="1" fill-rule="nonzero"/></g><path fill="#ff3131" d="M 64.460938 152.273438 C 64.460938 155.816406 61.585938 158.6875 58.042969 158.6875 C 54.5 158.6875 51.628906 155.816406 51.628906 152.273438 C 51.628906 148.726562 54.5 145.855469 58.042969 145.855469 C 61.585938 145.855469 64.460938 148.726562 64.460938 152.273438 " fill-opacity="1" fill-rule="nonzero"/><g fill="#000000" fill-opacity="1"><g transform="translate(59.655985, 209.022805)"><g><path d="M 13.65625 -17.28125 C 12.09375 -18.019531 10.554688 -18.820312 9.046875 -19.6875 C 7.546875 -20.5625 6.179688 -21.523438 4.953125 -22.578125 C 3.734375 -23.640625 2.753906 -24.84375 2.015625 -26.1875 C 1.285156 -27.539062 0.921875 -29.078125 0.921875 -30.796875 C 0.921875 -32.628906 1.398438 -34.226562 2.359375 -35.59375 C 3.328125 -36.957031 4.597656 -38.101562 6.171875 -39.03125 C 7.753906 -39.96875 9.507812 -40.660156 11.4375 -41.109375 C 13.375 -41.554688 15.304688 -41.78125 17.234375 -41.78125 C 19.410156 -41.78125 21.441406 -41.554688 23.328125 -41.109375 C 25.210938 -40.660156 26.9375 -40.378906 28.5 -40.265625 C 29.164062 -40.234375 29.820312 -40.253906 30.46875 -40.328125 C 31.113281 -40.398438 31.773438 -40.59375 32.453125 -40.90625 C 32.078125 -39.28125 31.710938 -37.328125 31.359375 -35.046875 C 31.015625 -32.765625 30.75 -30.03125 30.5625 -26.84375 C 29.550781 -30.207031 28.335938 -32.867188 26.921875 -34.828125 C 25.515625 -36.796875 24.035156 -38.207031 22.484375 -39.0625 C 20.941406 -39.925781 19.4375 -40.359375 17.96875 -40.359375 C 17.175781 -40.359375 16.363281 -40.132812 15.53125 -39.6875 C 14.707031 -39.238281 13.960938 -38.644531 13.296875 -37.90625 C 12.640625 -37.175781 12.164062 -36.335938 11.875 -35.390625 C 11.582031 -34.441406 11.570312 -33.445312 11.84375 -32.40625 C 12.125 -31.363281 12.765625 -30.34375 13.765625 -29.34375 C 14.765625 -28.34375 16.226562 -27.414062 18.15625 -26.5625 C 19.65625 -25.882812 21.203125 -25.21875 22.796875 -24.5625 C 24.390625 -23.90625 25.925781 -23.1875 27.40625 -22.40625 C 28.894531 -21.625 30.238281 -20.757812 31.4375 -19.8125 C 32.632812 -18.863281 33.582031 -17.765625 34.28125 -16.515625 C 34.988281 -15.273438 35.34375 -13.859375 35.34375 -12.265625 C 35.34375 -9.847656 34.632812 -7.695312 33.21875 -5.8125 C 31.8125 -3.925781 30.050781 -2.445312 27.9375 -1.375 C 26.4375 -0.613281 24.765625 -0.0390625 22.921875 0.34375 C 21.085938 0.726562 19.207031 0.921875 17.28125 0.921875 C 15.84375 0.921875 14.367188 0.804688 12.859375 0.578125 C 11.359375 0.347656 9.921875 0.101562 8.546875 -0.15625 C 7.171875 -0.414062 5.945312 -0.578125 4.875 -0.640625 C 4.226562 -0.703125 3.578125 -0.6875 2.921875 -0.59375 C 2.265625 -0.5 1.597656 -0.300781 0.921875 0 C 1.285156 -1.625 1.644531 -3.582031 2 -5.875 C 2.351562 -8.175781 2.632812 -10.90625 2.84375 -14.0625 C 3.613281 -11.550781 4.578125 -9.425781 5.734375 -7.6875 C 6.898438 -5.957031 8.15625 -4.566406 9.5 -3.515625 C 10.851562 -2.460938 12.195312 -1.695312 13.53125 -1.21875 C 14.863281 -0.738281 16.082031 -0.5 17.1875 -0.5 C 18.507812 -0.5 19.695312 -0.78125 20.75 -1.34375 C 21.8125 -1.914062 22.671875 -2.675781 23.328125 -3.625 C 23.984375 -4.582031 24.363281 -5.625 24.46875 -6.75 C 24.582031 -7.882812 24.332031 -9.039062 23.71875 -10.21875 C 23.101562 -11.40625 22.0625 -12.503906 20.59375 -13.515625 C 19.425781 -14.304688 18.207031 -15.015625 16.9375 -15.640625 C 15.664062 -16.273438 14.570312 -16.820312 13.65625 -17.28125 Z M 13.65625 -17.28125 "/></g></g></g><g fill="#000000" fill-opacity="1"><g transform="translate(94.998817, 209.022805)"><g><path d="M 13.375 0 L 1.28125 0 C 1.957031 -2.820312 2.460938 -5.375 2.796875 -7.65625 C 3.140625 -9.9375 3.3125 -12.140625 3.3125 -14.265625 C 3.3125 -16.398438 3.140625 -18.609375 2.796875 -20.890625 C 2.460938 -23.171875 1.957031 -25.722656 1.28125 -28.546875 L 13.375 -28.546875 C 12.519531 -25.109375 11.929688 -22.070312 11.609375 -19.4375 C 11.285156 -16.800781 11.210938 -14.148438 11.390625 -11.484375 C 11.484375 -13.535156 11.742188 -15.570312 12.171875 -17.59375 C 12.609375 -19.625 13.234375 -21.492188 14.046875 -23.203125 C 14.859375 -24.921875 15.921875 -26.335938 17.234375 -27.453125 C 18.554688 -28.578125 20.164062 -29.242188 22.0625 -29.453125 C 23.863281 -29.671875 25.285156 -29.472656 26.328125 -28.859375 C 27.367188 -28.242188 28.046875 -27.460938 28.359375 -26.515625 C 28.628906 -25.660156 28.570312 -24.75 28.1875 -23.78125 C 27.8125 -22.820312 27.117188 -21.972656 26.109375 -21.234375 C 25.097656 -20.492188 23.75 -20.019531 22.0625 -19.8125 C 20.46875 -19.625 19.234375 -19.894531 18.359375 -20.625 C 17.484375 -21.363281 17.203125 -22.253906 17.515625 -23.296875 C 17.660156 -23.785156 17.71875 -24.191406 17.6875 -24.515625 C 17.664062 -24.835938 17.53125 -25 17.28125 -25 C 17.09375 -25 16.878906 -24.894531 16.640625 -24.6875 C 15.898438 -23.976562 15.21875 -22.8125 14.59375 -21.1875 C 13.96875 -19.5625 13.460938 -17.660156 13.078125 -15.484375 C 12.691406 -13.304688 12.472656 -11.023438 12.421875 -8.640625 C 12.378906 -6.253906 12.554688 -3.925781 12.953125 -1.65625 C 13.015625 -1.375 13.082031 -1.09375 13.15625 -0.8125 C 13.238281 -0.539062 13.3125 -0.269531 13.375 0 Z M 13.375 0 "/></g></g></g><g fill="#000000" fill-opacity="1"><g transform="translate(122.712377, 209.022805)"><g><path d="M 1.5625 0 C 2.238281 -2.820312 2.742188 -5.375 3.078125 -7.65625 C 3.410156 -9.9375 3.578125 -12.140625 3.578125 -14.265625 C 3.578125 -16.398438 3.410156 -18.609375 3.078125 -20.890625 C 2.742188 -23.171875 2.238281 -25.722656 1.5625 -28.546875 L 13.65625 -28.546875 C 12.976562 -25.722656 12.460938 -23.171875 12.109375 -20.890625 C 11.753906 -18.609375 11.578125 -16.398438 11.578125 -14.265625 C 11.578125 -12.140625 11.753906 -9.9375 12.109375 -7.65625 C 12.460938 -5.375 12.976562 -2.820312 13.65625 0 Z M 7.765625 -32.953125 C 6.046875 -32.765625 4.664062 -32.929688 3.625 -33.453125 C 2.582031 -33.972656 1.882812 -34.691406 1.53125 -35.609375 C 1.1875 -36.535156 1.179688 -37.492188 1.515625 -38.484375 C 1.847656 -39.484375 2.535156 -40.363281 3.578125 -41.125 C 4.617188 -41.894531 6.015625 -42.390625 7.765625 -42.609375 C 9.484375 -42.785156 10.863281 -42.601562 11.90625 -42.0625 C 12.945312 -41.53125 13.632812 -40.804688 13.96875 -39.890625 C 14.3125 -38.972656 14.3125 -38.015625 13.96875 -37.015625 C 13.632812 -36.023438 12.945312 -35.144531 11.90625 -34.375 C 10.863281 -33.613281 9.484375 -33.140625 7.765625 -32.953125 Z M 7.765625 -32.953125 "/></g></g></g><g fill="#000000" fill-opacity="1"><g transform="translate(138.200718, 209.022805)"><g/></g></g><g fill="#000000" fill-opacity="1"><g transform="translate(150.15018, 209.022805)"><g><path d="M 13.375 0 L 1.28125 0 C 1.832031 -2.238281 2.269531 -4.726562 2.59375 -7.46875 C 2.914062 -10.207031 3.128906 -13.054688 3.234375 -16.015625 C 3.347656 -18.972656 3.347656 -21.929688 3.234375 -24.890625 C 3.128906 -27.847656 2.914062 -30.695312 2.59375 -33.4375 C 2.269531 -36.175781 1.832031 -38.664062 1.28125 -40.90625 L 13.375 -40.90625 C 12.757812 -38.394531 12.273438 -35.585938 11.921875 -32.484375 C 11.566406 -29.390625 11.359375 -26.171875 11.296875 -22.828125 C 11.242188 -19.492188 11.320312 -16.21875 11.53125 -13 C 11.957031 -16.070312 12.722656 -18.675781 13.828125 -20.8125 C 14.929688 -22.957031 16.21875 -24.6875 17.6875 -26 C 19.164062 -27.320312 20.640625 -28.257812 22.109375 -28.8125 C 22.929688 -29.15625 23.832031 -29.367188 24.8125 -29.453125 C 26.5625 -29.640625 27.929688 -29.460938 28.921875 -28.921875 C 29.921875 -28.390625 30.554688 -27.664062 30.828125 -26.75 C 31.109375 -25.832031 31.039062 -24.875 30.625 -23.875 C 30.21875 -22.875 29.46875 -21.988281 28.375 -21.21875 C 27.289062 -20.457031 25.890625 -19.988281 24.171875 -19.8125 C 22.515625 -19.625 21.28125 -19.910156 20.46875 -20.671875 C 19.65625 -21.441406 19.453125 -22.347656 19.859375 -23.390625 C 20.035156 -23.878906 20.125 -24.269531 20.125 -24.5625 C 20.125 -24.851562 19.988281 -25 19.71875 -25 C 19.5 -25 19.269531 -24.9375 19.03125 -24.8125 C 18.132812 -24.382812 17.226562 -23.550781 16.3125 -22.3125 C 15.394531 -21.070312 14.613281 -19.441406 13.96875 -17.421875 C 15.351562 -17.484375 16.601562 -17.613281 17.71875 -17.8125 C 18.832031 -18.007812 19.878906 -18.226562 20.859375 -18.46875 C 21.234375 -17.582031 21.703125 -16.488281 22.265625 -15.1875 C 22.835938 -13.882812 23.484375 -12.503906 24.203125 -11.046875 C 24.921875 -9.597656 25.675781 -8.160156 26.46875 -6.734375 C 27.269531 -5.304688 28.078125 -4.003906 28.890625 -2.828125 C 29.703125 -1.648438 30.472656 -0.707031 31.203125 0 L 19.125 0 C 19 -0.976562 18.660156 -2.222656 18.109375 -3.734375 C 17.554688 -5.253906 16.859375 -6.925781 16.015625 -8.75 C 15.171875 -10.570312 14.242188 -12.421875 13.234375 -14.296875 C 12.898438 -12.421875 12.734375 -10.273438 12.734375 -7.859375 C 12.734375 -5.441406 12.945312 -2.820312 13.375 0 Z M 13.375 0 "/></g></g></g><g fill="#000000" fill-opacity="1"><g transform="translate(180.851106, 209.022805)"><g><path d="M 1.5625 0 C 2.238281 -2.820312 2.742188 -5.375 3.078125 -7.65625 C 3.410156 -9.9375 3.578125 -12.140625 3.578125 -14.265625 C 3.578125 -16.398438 3.410156 -18.609375 3.078125 -20.890625 C 2.742188 -23.171875 2.238281 -25.722656 1.5625 -28.546875 L 13.65625 -28.546875 C 12.976562 -25.722656 12.460938 -23.171875 12.109375 -20.890625 C 11.753906 -18.609375 11.578125 -16.398438 11.578125 -14.265625 C 11.578125 -12.140625 11.753906 -9.9375 12.109375 -7.65625 C 12.460938 -5.375 12.976562 -2.820312 13.65625 0 Z M 7.765625 -32.953125 C 6.046875 -32.765625 4.664062 -32.929688 3.625 -33.453125 C 2.582031 -33.972656 1.882812 -34.691406 1.53125 -35.609375 C 1.1875 -36.535156 1.179688 -37.492188 1.515625 -38.484375 C 1.847656 -39.484375 2.535156 -40.363281 3.578125 -41.125 C 4.617188 -41.894531 6.015625 -42.390625 7.765625 -42.609375 C 9.484375 -42.785156 10.863281 -42.601562 11.90625 -42.0625 C 12.945312 -41.53125 13.632812 -40.804688 13.96875 -39.890625 C 14.3125 -38.972656 14.3125 -38.015625 13.96875 -37.015625 C 13.632812 -36.023438 12.945312 -35.144531 11.90625 -34.375 C 10.863281 -33.613281 9.484375 -33.140625 7.765625 -32.953125 Z M 7.765625 -32.953125 "/></g></g></g><g fill="#000000" fill-opacity="1"><g transform="translate(196.339447, 209.022805)"><g><path d="M 13.375 0 L 1.28125 0 C 1.957031 -2.820312 2.460938 -5.375 2.796875 -7.65625 C 3.140625 -9.9375 3.3125 -12.140625 3.3125 -14.265625 C 3.3125 -16.398438 3.140625 -18.609375 2.796875 -20.890625 C 2.460938 -23.171875 1.957031 -25.722656 1.28125 -28.546875 L 13.375 -28.546875 C 12.519531 -25.109375 11.929688 -22.070312 11.609375 -19.4375 C 11.285156 -16.800781 11.210938 -14.148438 11.390625 -11.484375 C 11.484375 -13.535156 11.742188 -15.570312 12.171875 -17.59375 C 12.609375 -19.625 13.234375 -21.492188 14.046875 -23.203125 C 14.859375 -24.921875 15.921875 -26.335938 17.234375 -27.453125 C 18.554688 -28.578125 20.164062 -29.242188 22.0625 -29.453125 C 23.863281 -29.671875 25.285156 -29.472656 26.328125 -28.859375 C 27.367188 -28.242188 28.046875 -27.460938 28.359375 -26.515625 C 28.628906 -25.660156 28.570312 -24.75 28.1875 -23.78125 C 27.8125 -22.820312 27.117188 -21.972656 26.109375 -21.234375 C 25.097656 -20.492188 23.75 -20.019531 22.0625 -19.8125 C 20.46875 -19.625 19.234375 -19.894531 18.359375 -20.625 C 17.484375 -21.363281 17.203125 -22.253906 17.515625 -23.296875 C 17.660156 -23.785156 17.71875 -24.191406 17.6875 -24.515625 C 17.664062 -24.835938 17.53125 -25 17.28125 -25 C 17.09375 -25 16.878906 -24.894531 16.640625 -24.6875 C 15.898438 -23.976562 15.21875 -22.8125 14.59375 -21.1875 C 13.96875 -19.5625 13.460938 -17.660156 13.078125 -15.484375 C 12.691406 -13.304688 12.472656 -11.023438 12.421875 -8.640625 C 12.378906 -6.253906 12.554688 -3.925781 12.953125 -1.65625 C 13.015625 -1.375 13.082031 -1.09375 13.15625 -0.8125 C 13.238281 -0.539062 13.3125 -0.269531 13.375 0 Z M 13.375 0 "/></g></g></g><g fill="#000000" fill-opacity="1"><g transform="translate(224.053007, 209.022805)"><g><path d="M 1.5625 0 C 2.238281 -2.820312 2.742188 -5.375 3.078125 -7.65625 C 3.410156 -9.9375 3.578125 -12.140625 3.578125 -14.265625 C 3.578125 -16.398438 3.410156 -18.609375 3.078125 -20.890625 C 2.742188 -23.171875 2.238281 -25.722656 1.5625 -28.546875 L 13.65625 -28.546875 C 12.976562 -25.722656 12.460938 -23.171875 12.109375 -20.890625 C 11.753906 -18.609375 11.578125 -16.398438 11.578125 -14.265625 C 11.578125 -12.140625 11.753906 -9.9375 12.109375 -7.65625 C 12.460938 -5.375 12.976562 -2.820312 13.65625 0 Z M 7.765625 -32.953125 C 6.046875 -32.765625 4.664062 -32.929688 3.625 -33.453125 C 2.582031 -33.972656 1.882812 -34.691406 1.53125 -35.609375 C 1.1875 -36.535156 1.179688 -37.492188 1.515625 -38.484375 C 1.847656 -39.484375 2.535156 -40.363281 3.578125 -41.125 C 4.617188 -41.894531 6.015625 -42.390625 7.765625 -42.609375 C 9.484375 -42.785156 10.863281 -42.601562 11.90625 -42.0625 C 12.945312 -41.53125 13.632812 -40.804688 13.96875 -39.890625 C 14.3125 -38.972656 14.3125 -38.015625 13.96875 -37.015625 C 13.632812 -36.023438 12.945312 -35.144531 11.90625 -34.375 C 10.863281 -33.613281 9.484375 -33.140625 7.765625 -32.953125 Z M 7.765625 -32.953125 "/></g></g></g><g fill="#000000" fill-opacity="1"><g transform="translate(239.541348, 209.022805)"><g><path d="M 1.703125 -4.640625 C 1.054688 -5.804688 0.769531 -6.882812 0.84375 -7.875 C 0.925781 -8.875 1.300781 -9.679688 1.96875 -10.296875 C 2.644531 -10.910156 3.550781 -11.21875 4.6875 -11.21875 C 5.539062 -11.21875 6.488281 -11.007812 7.53125 -10.59375 C 8.570312 -10.175781 9.691406 -9.492188 10.890625 -8.546875 C 10.035156 -7.929688 9.476562 -7.203125 9.21875 -6.359375 C 8.957031 -5.515625 8.976562 -4.6875 9.28125 -3.875 C 9.59375 -3.070312 10.128906 -2.347656 10.890625 -1.703125 C 11.835938 -0.929688 12.832031 -0.546875 13.875 -0.546875 C 14.820312 -0.546875 15.6875 -0.820312 16.46875 -1.375 C 17.257812 -1.925781 17.820312 -2.644531 18.15625 -3.53125 C 18.488281 -4.425781 18.488281 -5.367188 18.15625 -6.359375 C 17.820312 -7.359375 17.023438 -8.285156 15.765625 -9.140625 C 14.722656 -9.878906 13.488281 -10.5625 12.0625 -11.1875 C 10.632812 -11.820312 9.25 -12.503906 7.90625 -13.234375 C 6.125 -14.210938 4.765625 -15.390625 3.828125 -16.765625 C 2.898438 -18.148438 2.421875 -19.566406 2.390625 -21.015625 C 2.359375 -22.472656 2.832031 -23.835938 3.8125 -25.109375 C 4.789062 -26.390625 6.289062 -27.425781 8.3125 -28.21875 C 9.476562 -28.644531 10.710938 -28.972656 12.015625 -29.203125 C 13.316406 -29.429688 14.613281 -29.546875 15.90625 -29.546875 C 17.53125 -29.546875 19.0625 -29.367188 20.5 -29.015625 C 21.9375 -28.671875 23.125 -28.160156 24.0625 -27.484375 C 25 -26.804688 25.539062 -25.945312 25.6875 -24.90625 C 25.875 -23.738281 25.503906 -22.617188 24.578125 -21.546875 C 23.660156 -20.484375 22.207031 -19.828125 20.21875 -19.578125 C 18.84375 -19.421875 17.722656 -19.617188 16.859375 -20.171875 C 16.003906 -20.722656 15.550781 -21.441406 15.5 -22.328125 C 15.457031 -23.222656 15.925781 -24.082031 16.90625 -24.90625 C 17.34375 -25.28125 17.566406 -25.710938 17.578125 -26.203125 C 17.597656 -26.691406 17.351562 -27.132812 16.84375 -27.53125 C 16.332031 -27.925781 15.515625 -28.125 14.390625 -28.125 C 13.984375 -28.125 13.484375 -27.925781 12.890625 -27.53125 C 12.296875 -27.132812 11.742188 -26.613281 11.234375 -25.96875 C 10.734375 -25.320312 10.390625 -24.628906 10.203125 -23.890625 C 10.015625 -23.160156 10.113281 -22.441406 10.5 -21.734375 C 10.882812 -21.035156 11.675781 -20.441406 12.875 -19.953125 C 13.96875 -19.484375 15.148438 -19.023438 16.421875 -18.578125 C 17.703125 -18.140625 18.96875 -17.648438 20.21875 -17.109375 C 21.476562 -16.578125 22.617188 -15.925781 23.640625 -15.15625 C 24.671875 -14.394531 25.5 -13.46875 26.125 -12.375 C 26.75 -11.289062 27.0625 -9.984375 27.0625 -8.453125 C 27.0625 -6.742188 26.5625 -5.210938 25.5625 -3.859375 C 24.570312 -2.515625 23.328125 -1.457031 21.828125 -0.6875 C 20.785156 -0.164062 19.601562 0.226562 18.28125 0.5 C 16.96875 0.78125 15.609375 0.921875 14.203125 0.921875 C 12.515625 0.921875 10.847656 0.71875 9.203125 0.3125 C 7.566406 -0.0820312 6.085938 -0.691406 4.765625 -1.515625 C 3.453125 -2.335938 2.429688 -3.378906 1.703125 -4.640625 Z M 1.703125 -4.640625 "/></g></g></g><g fill="#000000" fill-opacity="1"><g transform="translate(267.438746, 209.022805)"><g><path d="M 13.375 0 L 1.28125 0 C 1.832031 -2.238281 2.269531 -4.726562 2.59375 -7.46875 C 2.914062 -10.207031 3.128906 -13.054688 3.234375 -16.015625 C 3.347656 -18.972656 3.347656 -21.929688 3.234375 -24.890625 C 3.128906 -27.847656 2.914062 -30.695312 2.59375 -33.4375 C 2.269531 -36.175781 1.832031 -38.664062 1.28125 -40.90625 L 13.375 -40.90625 C 12.757812 -38.425781 12.28125 -35.632812 11.9375 -32.53125 C 11.601562 -29.4375 11.398438 -26.234375 11.328125 -22.921875 C 11.253906 -19.617188 11.320312 -16.359375 11.53125 -13.140625 C 11.8125 -15.898438 12.363281 -18.304688 13.1875 -20.359375 C 14.019531 -22.410156 15.015625 -24.109375 16.171875 -25.453125 C 17.335938 -26.804688 18.570312 -27.8125 19.875 -28.46875 C 21.175781 -29.125 22.425781 -29.453125 23.625 -29.453125 C 24.851562 -29.453125 25.957031 -29.125 26.9375 -28.46875 C 27.914062 -27.8125 28.632812 -26.835938 29.09375 -25.546875 C 29.582031 -24.203125 29.769531 -22.835938 29.65625 -21.453125 C 29.550781 -20.078125 29.351562 -18.640625 29.0625 -17.140625 C 28.769531 -15.640625 28.5625 -14.023438 28.4375 -12.296875 C 28.320312 -10.566406 28.460938 -8.6875 28.859375 -6.65625 C 29.253906 -4.632812 30.097656 -2.414062 31.390625 0 L 19.296875 0 C 18.898438 -1.3125 18.753906 -2.769531 18.859375 -4.375 C 18.972656 -5.988281 19.21875 -7.671875 19.59375 -9.421875 C 19.976562 -11.171875 20.378906 -12.898438 20.796875 -14.609375 C 21.210938 -16.328125 21.535156 -17.96875 21.765625 -19.53125 C 21.992188 -21.09375 22.015625 -22.488281 21.828125 -23.71875 C 21.703125 -24.507812 21.460938 -25.101562 21.109375 -25.5 C 20.765625 -25.90625 20.332031 -26.109375 19.8125 -26.109375 C 18.976562 -26.109375 18.054688 -25.554688 17.046875 -24.453125 C 16.035156 -23.347656 15.128906 -21.707031 14.328125 -19.53125 C 13.535156 -17.351562 13.007812 -14.632812 12.75 -11.375 C 12.488281 -8.113281 12.695312 -4.320312 13.375 0 Z M 13.375 0 "/></g></g></g><g fill="#000000" fill-opacity="1"><g transform="translate(299.610375, 209.022805)"><g><path d="M 1.28125 -28.546875 L 13.375 -28.546875 C 12.789062 -26.210938 12.328125 -24.066406 11.984375 -22.109375 C 11.648438 -20.148438 11.4375 -18.269531 11.34375 -16.46875 C 11.257812 -14.675781 11.273438 -12.863281 11.390625 -11.03125 C 11.546875 -14.15625 12.019531 -16.875 12.8125 -19.1875 C 13.613281 -21.5 14.613281 -23.410156 15.8125 -24.921875 C 17.007812 -26.441406 18.285156 -27.578125 19.640625 -28.328125 C 21.003906 -29.078125 22.332031 -29.453125 23.625 -29.453125 C 24.851562 -29.453125 25.945312 -29.125 26.90625 -28.46875 C 27.875 -27.8125 28.585938 -26.835938 29.046875 -25.546875 C 29.535156 -24.203125 29.722656 -22.835938 29.609375 -21.453125 C 29.503906 -20.078125 29.304688 -18.640625 29.015625 -17.140625 C 28.734375 -15.640625 28.53125 -14.023438 28.40625 -12.296875 C 28.28125 -10.566406 28.414062 -8.6875 28.8125 -6.65625 C 29.21875 -4.632812 30.0625 -2.414062 31.34375 0 L 19.25 0 C 18.851562 -1.3125 18.707031 -2.769531 18.8125 -4.375 C 18.925781 -5.988281 19.171875 -7.671875 19.546875 -9.421875 C 19.929688 -11.171875 20.332031 -12.898438 20.75 -14.609375 C 21.164062 -16.328125 21.488281 -17.96875 21.71875 -19.53125 C 21.945312 -21.09375 21.96875 -22.488281 21.78125 -23.71875 C 21.65625 -24.476562 21.425781 -25.039062 21.09375 -25.40625 C 20.757812 -25.78125 20.363281 -25.96875 19.90625 -25.96875 C 19.070312 -25.96875 18.148438 -25.398438 17.140625 -24.265625 C 16.128906 -23.128906 15.207031 -21.457031 14.375 -19.25 C 13.550781 -17.050781 13.007812 -14.34375 12.75 -11.125 C 12.488281 -7.90625 12.695312 -4.195312 13.375 0 L 1.28125 0 C 1.957031 -2.820312 2.460938 -5.375 2.796875 -7.65625 C 3.140625 -9.9375 3.3125 -12.140625 3.3125 -14.265625 C 3.3125 -16.398438 3.140625 -18.609375 2.796875 -20.890625 C 2.460938 -23.171875 1.957031 -25.722656 1.28125 -28.546875 Z M 1.28125 -28.546875 "/></g></g></g><g fill="#000000" fill-opacity="1"><g transform="translate(331.782004, 209.022805)"><g><path d="M 15.765625 -4.140625 C 14.910156 -2.453125 13.738281 -1.175781 12.25 -0.3125 C 10.757812 0.539062 9.234375 0.96875 7.671875 0.96875 C 6.171875 0.96875 4.757812 0.585938 3.4375 -0.171875 C 2.125 -0.941406 1.125 -2.097656 0.4375 -3.640625 C -0.25 -5.191406 -0.425781 -7.117188 -0.09375 -9.421875 C 0.21875 -11.472656 1 -13.25 2.25 -14.75 C 3.507812 -16.25 5.023438 -17.410156 6.796875 -18.234375 C 8.578125 -19.066406 10.382812 -19.484375 12.21875 -19.484375 C 13.351562 -19.484375 14.457031 -19.3125 15.53125 -18.96875 C 16.601562 -18.632812 17.582031 -18.117188 18.46875 -17.421875 C 18.90625 -18.273438 19.222656 -19.3125 19.421875 -20.53125 C 19.617188 -21.757812 19.503906 -23.082031 19.078125 -24.5 C 18.734375 -25.664062 18.191406 -26.550781 17.453125 -27.15625 C 16.722656 -27.769531 16.019531 -28.078125 15.34375 -28.078125 C 14.851562 -28.078125 14.441406 -27.914062 14.109375 -27.59375 C 13.773438 -27.269531 13.578125 -26.773438 13.515625 -26.109375 C 13.390625 -24.578125 13.039062 -23.390625 12.46875 -22.546875 C 11.90625 -21.703125 11.234375 -21.101562 10.453125 -20.75 C 9.671875 -20.394531 8.898438 -20.171875 8.140625 -20.078125 C 6.753906 -19.929688 5.644531 -20.15625 4.8125 -20.75 C 3.988281 -21.34375 3.566406 -22.109375 3.546875 -23.046875 C 3.535156 -23.984375 4.023438 -24.878906 5.015625 -25.734375 C 6.421875 -26.992188 8.035156 -27.941406 9.859375 -28.578125 C 11.679688 -29.222656 13.492188 -29.546875 15.296875 -29.546875 C 16.867188 -29.546875 18.359375 -29.289062 19.765625 -28.78125 C 21.171875 -28.28125 22.394531 -27.515625 23.4375 -26.484375 C 24.476562 -25.460938 25.226562 -24.15625 25.6875 -22.5625 C 26.144531 -20.96875 26.207031 -19.082031 25.875 -16.90625 C 25.65625 -15.40625 25.476562 -13.828125 25.34375 -12.171875 C 25.207031 -10.523438 25.328125 -8.703125 25.703125 -6.703125 C 26.085938 -4.710938 26.941406 -2.476562 28.265625 0 L 16.171875 0 C 15.960938 -0.707031 15.832031 -1.40625 15.78125 -2.09375 C 15.738281 -2.78125 15.734375 -3.460938 15.765625 -4.140625 Z M 9.28125 -10.703125 C 8.882812 -9.109375 8.753906 -7.722656 8.890625 -6.546875 C 9.023438 -5.367188 9.351562 -4.457031 9.875 -3.8125 C 10.394531 -3.164062 10.992188 -2.84375 11.671875 -2.84375 C 12.378906 -2.84375 13.113281 -3.234375 13.875 -4.015625 C 14.644531 -4.796875 15.332031 -6.03125 15.9375 -7.71875 C 16.550781 -9.40625 16.984375 -11.597656 17.234375 -14.296875 C 17.234375 -15.367188 17.019531 -16.148438 16.59375 -16.640625 C 16.164062 -17.128906 15.644531 -17.375 15.03125 -17.375 C 14.050781 -17.375 12.976562 -16.796875 11.8125 -15.640625 C 10.644531 -14.492188 9.800781 -12.847656 9.28125 -10.703125 Z M 9.28125 -10.703125 "/></g></g></g></svg>